<svg xmlns="http://www.w3.org/2000/svg" class="hidden">
  <symbol id="icon-message" viewBox="0 0 24 24">
    <path d="M4 4h16v12H4z" />
  </symbol>

  <!-- LinkedIn Icon (color) -->
  <symbol id="icon-linkedin" viewBox="0 0 24 24" role="img" aria-label="LinkedIn">
    <rect width="24" height="24" rx="4" fill="#0A66C2" />
    <path fill="#FFFFFF"
      d="M4.98 7.5a2 2 0 100-4 2 2 0 000 4zM3.25 9h3.46v11H3.25zM9.25 9h3.31v1.57h.05c.46-.84 1.58-1.78 3.28-1.78 3.51 0 4.16 2.31 4.16 5.32V20h-3.46v-5.07c0-1.21-.02-2.76-1.68-2.76-1.69 0-1.95 1.32-1.95 2.68V20H9.25z" />
  </symbol>

  <!-- Facebook Icon (color) -->
  <symbol id="icon-facebook" viewBox="0 0 24 24" role="img" aria-label="Facebook">
    <rect width="24" height="24" rx="4" fill="#1877F2" />
    <path fill="#FFFFFF"
      d="M15.12 8.1H17V5.14C16.68 5.1 15.62 5 14.38 5 11.8 5 10.02 6.57 10.02 9.44V12H7v3h3.02v7h3.62v-7h2.84l.52-3h-3.36V9.86c0-.87.24-1.76 1.48-1.76z" />
  </symbol>

  <!-- GitHub Icon (color - brand monochrome) -->
  <symbol id="icon-github" viewBox="0 0 24 24" role="img" aria-label="GitHub">
    <path fill="#181717"
      d="M12 .5C5.65.5.5 5.65.5 12c0 5.1 3.29 9.41 7.86 10.94.58.1.79-.25.79-.56 0-.28-.01-1.02-.02-2-3.2.7-3.88-1.54-3.88-1.54-.53-1.33-1.3-1.69-1.3-1.69-1.07-.73.08-.72.08-.72 1.18.08 1.8 1.21 1.8 1.21 1.05 1.79 2.75 1.27 3.42.97.1-.76.41-1.27.74-1.56-2.55-.29-5.23-1.28-5.23-5.69 0-1.26.45-2.29 1.2-3.09-.12-.29-.52-1.47.11-3.07 0 0 .97-.31 3.18 1.18a11.1 11.1 0 0 1 2.9-.39c.99 0 1.99.13 2.9.39 2.2-1.49 3.17-1.18 3.17-1.18.63 1.6.23 2.78.11 3.07.75.8 1.2 1.83 1.2 3.09 0 4.42-2.69 5.39-5.25 5.68.42.36.79 1.07.79 2.16 0 1.56-.01 2.81-.01 3.19 0 .31.21.67.8.56A10.52 10.52 0 0 0 23.5 12C23.5 5.65 18.35.5 12 .5z" />
  </symbol>

  <!-- Angular Icon (color) -->
  <symbol id="icon-angular" fill="none" viewBox="0 0 223 236" width="6em" role="img"
    aria-label="Angular">
    <g _ngcontent-ng-c586675657="" clip-path="url(#a)">
      <path _ngcontent-ng-c586675657="" fill="url(#b)"
        d="m222.077 39.192-8.019 125.923L137.387 0l84.69 39.192Zm-53.105 162.825-57.933 33.056-57.934-33.056 11.783-28.556h92.301l11.783 28.556ZM111.039 62.675l30.357 73.803H80.681l30.358-73.803ZM7.937 165.115 0 39.192 84.69 0 7.937 165.115Z"></path>
      <path _ngcontent-ng-c586675657="" fill="url(#c)"
        d="m222.077 39.192-8.019 125.923L137.387 0l84.69 39.192Zm-53.105 162.825-57.933 33.056-57.934-33.056 11.783-28.556h92.301l11.783 28.556ZM111.039 62.675l30.357 73.803H80.681l30.358-73.803ZM7.937 165.115 0 39.192 84.69 0 7.937 165.115Z"></path>
    </g>
    <defs _ngcontent-ng-c586675657="">
      <linearGradient _ngcontent-ng-c586675657="" id="b" x1="49.009" x2="225.829" y1="213.75"
        y2="129.722" gradientUnits="userSpaceOnUse">
        <stop _ngcontent-ng-c586675657="" stop-color="#E40035"></stop>
        <stop _ngcontent-ng-c586675657="" offset=".24" stop-color="#F60A48"></stop>
        <stop _ngcontent-ng-c586675657="" offset=".352" stop-color="#F20755"></stop>
        <stop _ngcontent-ng-c586675657="" offset=".494" stop-color="#DC087D"></stop>
        <stop _ngcontent-ng-c586675657="" offset=".745" stop-color="#9717E7"></stop>
        <stop _ngcontent-ng-c586675657="" offset="1" stop-color="#6C00F5"></stop>
      </linearGradient>
      <linearGradient _ngcontent-ng-c586675657="" id="c" x1="41.025" x2="156.741" y1="28.344"
        y2="160.344" gradientUnits="userSpaceOnUse">
        <stop _ngcontent-ng-c586675657="" stop-color="#FF31D9"></stop>
        <stop _ngcontent-ng-c586675657="" offset="1" stop-color="#FF5BE1" stop-opacity="0"></stop>
      </linearGradient>
      <clipPath _ngcontent-ng-c586675657="" id="a">
        <path _ngcontent-ng-c586675657="" fill="#fff" d="M0 0h223v236H0z"></path>
      </clipPath>
    </defs>
  </symbol>

  <!-- Platzi Icon (color) -->
  <symbol id="icon-platzi" width="5em" height="2em" fill="none" viewBox="0 0 200 80" role="img"
    aria-label="Platzi">
    <g fill="#0AEB8B" clip-path="url(#platzi-logo-minty_svg__a)">
      <path fill-rule="evenodd"
        d="M20.304 2.462 2.462 20.303a8.41 8.41 0 0 0 0 11.897l17.842 17.842a8.41 8.41 0 0 0 11.896 0l5.945-5.946-5.945-5.945-5.945 5.945L8.413 26.254 26.255 8.412 38.15 20.31 26.254 32.205l5.946 5.946 11.896-11.897a8.41 8.41 0 0 0 0-11.896L32.2 2.462a8.41 8.41 0 0 0-11.896 0"
        clip-rule="evenodd"></path>
      <path
        d="M192.283 13.785h7.043v33.597h-7.043zm-53.027-.09h-.621v5.838h5.384v20.544q.001 3.492 1.873 5.394c1.247 1.269 3.104 1.905 5.555 1.905h6.138v-5.752h-6.524V19.533h7.043v-5.839h-7.043V5.341h-6.33v4.174a4.18 4.18 0 0 1-4.175 4.18h-1.311zm56.548-4.127a4.19 4.19 0 1 0 .001-8.38 4.19 4.19 0 0 0-.001 8.38M95.84 47.392a4.19 4.19 0 0 1-4.19-4.19V5.378h7.042v36.256h4.65v5.753H98.82l-2.98.01zm65.903-.01v-5.689l18.029-22.16h-17.446v-5.839l25.778.091v5.427l-18.286 22.422h18.735v5.753h-26.816zm-27.052 0c-1.851 0-3.275-.525-4.265-1.584q-1.487-1.584-1.809-4.04h-.321q-.97 3.164-3.553 4.778-2.583 1.615-6.267 1.616-5.234 0-8.043-2.713-2.81-2.714-2.809-7.3-.002-5.04 3.649-7.56 3.652-2.521 10.692-2.521h6.074v-2.842q-.001-3.1-1.68-4.779-1.677-1.678-5.234-1.68c-1.98 0-3.596.433-4.848 1.29a11.6 11.6 0 0 0-3.168 3.296l-4.201-3.81q1.679-2.843 4.715-4.683 3.033-1.839 7.946-1.84 6.528-.001 10.013 3.034c2.328 2.023 3.489 4.934 3.489 8.723v16.862h3.554v5.753h-3.944zm-14.213-4.586q3.299-.001 5.426-1.456c1.424-.969 2.13-2.269 2.13-3.907V32.59h-5.945c-4.87 0-7.3 1.51-7.3 4.522v1.162q.002 2.262 1.52 3.393t4.169 1.129m-65.534 4.586V5.34h19.383c4.18 0 7.406 1.225 9.691 3.681 2.28 2.457 3.425 5.753 3.425 9.885q.001 6.198-3.425 9.884c-2.285 2.456-5.512 3.682-9.691 3.682H62.243v14.903h-7.3zm7.3-21.363h11.628q2.779-.001 4.33-1.44c1.032-.958 1.551-2.338 1.551-4.131v-3.072c0-1.793-.513-3.168-1.552-4.131q-1.55-1.439-4.33-1.44H62.244z"></path>
    </g>
    <defs>
      <clipPath id="platzi-logo-minty_svg__a">
        <path fill="#fff" d="M0 0h200v52.503H0z"></path>
      </clipPath>
    </defs>
  </symbol>


</svg>