<svg xmlns="http://www.w3.org/2000/svg" class="hidden">
  <symbol id="icon-message" viewBox="0 0 24 24">
    <path d="M4 4h16v12H4z" />
  </symbol>

  <!-- LinkedIn Icon (color) -->
  <symbol id="icon-linkedin" viewBox="0 0 24 24" role="img" aria-label="LinkedIn">
    <rect width="24" height="24" rx="4" fill="#0A66C2" />
    <path fill="#FFFFFF" d="M4.98 7.5a2 2 0 100-4 2 2 0 000 4zM3.25 9h3.46v11H3.25zM9.25 9h3.31v1.57h.05c.46-.84 1.58-1.78 3.28-1.78 3.51 0 4.16 2.31 4.16 5.32V20h-3.46v-5.07c0-1.21-.02-2.76-1.68-2.76-1.69 0-1.95 1.32-1.95 2.68V20H9.25z" />
  </symbol>

  <!-- Facebook Icon (color) -->
  <symbol id="icon-facebook" viewBox="0 0 24 24" role="img" aria-label="Facebook">
    <rect width="24" height="24" rx="4" fill="#1877F2" />
    <path fill="#FFFFFF" d="M15.12 8.1H17V5.14C16.68 5.1 15.62 5 14.38 5 11.8 5 10.02 6.57 10.02 9.44V12H7v3h3.02v7h3.62v-7h2.84l.52-3h-3.36V9.86c0-.87.24-1.76 1.48-1.76z" />
  </symbol>

  <!-- GitHub Icon (color - brand monochrome) -->
  <symbol id="icon-github" viewBox="0 0 24 24" role="img" aria-label="GitHub">
    <path fill="#181717" d="M12 .5C5.65.5.5 5.65.5 12c0 5.1 3.29 9.41 7.86 10.94.58.1.79-.25.79-.56 0-.28-.01-1.02-.02-2-3.2.7-3.88-1.54-3.88-1.54-.53-1.33-1.3-1.69-1.3-1.69-1.07-.73.08-.72.08-.72 1.18.08 1.8 1.21 1.8 1.21 1.05 1.79 2.75 1.27 3.42.97.1-.76.41-1.27.74-1.56-2.55-.29-5.23-1.28-5.23-5.69 0-1.26.45-2.29 1.2-3.09-.12-.29-.52-1.47.11-3.07 0 0 .97-.31 3.18 1.18a11.1 11.1 0 0 1 2.9-.39c.99 0 1.99.13 2.9.39 2.2-1.49 3.17-1.18 3.17-1.18.63 1.6.23 2.78.11 3.07.75.8 1.2 1.83 1.2 3.09 0 4.42-2.69 5.39-5.25 5.68.42.36.79 1.07.79 2.16 0 1.56-.01 2.81-.01 3.19 0 .31.21.67.8.56A10.52 10.52 0 0 0 23.5 12C23.5 5.65 18.35.5 12 .5z" />
  </symbol>

  
</svg>